<?xml version="1.0" encoding="utf-8"?>
<!-- Generator: Adobe Illustrator 21.1.0, SVG Export Plug-In . SVG Version: 6.00 Build 0)  -->
<svg version="1.1" id="Checkin" xmlns="http://www.w3.org/2000/svg" xmlns:xlink="http://www.w3.org/1999/xlink" x="0px" y="0px"
	 viewBox="58.2 55.1 24.8 28.8" style="enable-background:new 58.2 55.1 24.8 28.8;" xml:space="preserve">
<style type="text/css">
	.st0{fill:#004CD1;}
</style>
<path class="st0" d="M70.7,55.1L70.7,55.1c0,0-0.1,0-0.1,0c0,0-0.1,0-0.1,0v0c-6.8,0.1-12.3,5.1-12.3,11.3
	c0,8.4,10.8,16.3,12.4,17.4C72.2,82.8,83,74.8,83,66.5C83,60.3,77.5,55.2,70.7,55.1z M70.7,71.3c-3.6,0-6.4-2.6-6.4-5.9
	c0-3.2,2.9-5.9,6.4-5.9c3.6,0,6.4,2.6,6.4,5.9C77.2,68.7,74.3,71.3,70.7,71.3z"/>
</svg>
