<?xml version="1.0" encoding="utf-8"?>
<!-- Generator: Adobe Illustrator 21.1.0, SVG Export Plug-In . SVG Version: 6.00 Build 0)  -->
<svg version="1.1" id="Phone" xmlns="http://www.w3.org/2000/svg" xmlns:xlink="http://www.w3.org/1999/xlink" x="0px" y="0px"
	 viewBox="24.5 24.5 90 90" style="enable-background:new 24.5 24.5 90 90;" xml:space="preserve">
<style type="text/css">
	.st0{fill:#004CD1;}
</style>
<path class="st0" d="M69.5,24.5c-24.9,0-45,20.1-45,45c0,24.9,20.1,45,45,45c24.9,0,45-20.1,45-45C114.5,44.6,94.4,24.5,69.5,24.5z
	 M96.4,87.9c-2.1,3.2-3.9,6.5-12.5,6.7c-8.8,0-18-7.3-24.6-14.6c-6.6-6.5-12.8-14.8-12.8-22.9c0.2-8.6,3.5-10.4,6.7-12.5
	c0,0,1.8-0.7,3.3,0.6c1.5,1.3,8.2,8,8.2,8s2.4,2,0.7,4.2c-1.3,1.7-4.3,5-4.7,5.4l1.1,2.1c1.5,2.5,4.4,6.9,8.7,10.4
	c2.9,2.4,7.8,5,7.8,5c0.7-0.7,3.6-3.4,5.3-4.6c2.2-1.6,4.2,0.7,4.2,0.7s6.7,6.7,8,8.2C97.1,86.2,96.4,87.9,96.4,87.9z"/>
</svg>
