<?xml version="1.0" encoding="utf-8"?>
<!-- Generator: Adobe Illustrator 21.1.0, SVG Export Plug-In . SVG Version: 6.00 Build 0)  -->
<svg version="1.1" id="background" xmlns="http://www.w3.org/2000/svg" xmlns:xlink="http://www.w3.org/1999/xlink" x="0px" y="0px"
	 viewBox="0 0 184.3 119.8" style="enable-background:new 0 0 184.3 119.8;" xml:space="preserve">
<style type="text/css">
	.st0{fill:#DBE0E6;}
	.st1{fill:none;stroke:#DBE0E6;stroke-miterlimit:10;}
</style>
<ellipse transform="matrix(0.1736 -0.9848 0.9848 0.1736 102.1641 216.443)" class="st0" cx="180.1" cy="47.3" rx="4.3" ry="4.3"/>
<ellipse transform="matrix(0.1736 -0.9848 0.9848 0.1736 113.9617 144.3157)" class="st0" cx="143" cy="4.3" rx="4.3" ry="4.3"/>
<ellipse transform="matrix(0.1736 -0.9848 0.9848 0.1736 14.1562 165.5693)" class="st0" cx="105.7" cy="74.3" rx="4.8" ry="4.8"/>
<ellipse transform="matrix(0.1736 -0.9848 0.9848 0.1736 21.6591 256.9848)" class="st0" cx="164" cy="115.6" rx="4.3" ry="4.3"/>
<ellipse transform="matrix(0.1736 -0.9848 0.9848 0.1736 33.9824 88.0644)" class="st0" cx="69.5" cy="23.8" rx="2.8" ry="2.8"/>
<ellipse transform="matrix(0.1736 -0.9848 0.9848 0.1736 -33.0364 113.3976)" class="st0" cx="51.1" cy="76.4" rx="1.9" ry="1.9"/>
<ellipse transform="matrix(0.1736 -0.9848 0.9848 0.1736 -100.5843 91.5338)" class="st0" cx="4.3" cy="105.7" rx="4.3" ry="4.3"/>
<polyline class="st1" points="105.7,74.3 69.5,23.8 180.1,47.3 143,4.3 69.5,23.8 4.3,105.7 51.1,76.4 106,72.8 164,115.6 "/>
<line class="st1" x1="143.5" y1="1.2" x2="164.1" y2="113.5"/>
</svg>
