<?xml version="1.0" encoding="utf-8"?>
<!-- Generator: Adobe Illustrator 21.1.0, SVG Export Plug-In . SVG Version: 6.00 Build 0)  -->
<svg version="1.1" id="Слой_1" xmlns="http://www.w3.org/2000/svg" xmlns:xlink="http://www.w3.org/1999/xlink" x="0px" y="0px"
	 viewBox="0 0 39.9 39.9" style="enable-background:new 0 0 39.9 39.9;" xml:space="preserve">
<style type="text/css">
	.st0{fill:#FFFFFF;}
</style>
<g>
	<line class="st0" x1="2.5" y1="2.5" x2="37.4" y2="37.4"/>
	<g>
		<path class="st0" d="M0.7,4.3C12.4,15.9,24,27.5,35.6,39.1c2.3,2.3,5.8-1.3,3.5-3.5C27.5,24,15.9,12.4,4.3,0.7
			C2-1.5-1.5,2,0.7,4.3L0.7,4.3z"/>
	</g>
</g>
<g>
	<line class="st0" x1="37.4" y1="2.5" x2="2.5" y2="37.4"/>
	<g>
		<path class="st0" d="M35.6,0.7C24,12.4,12.4,24,0.7,35.6c-2.3,2.3,1.3,5.8,3.5,3.5C15.9,27.5,27.5,15.9,39.1,4.3
			C41.4,2,37.9-1.5,35.6,0.7L35.6,0.7z"/>
	</g>
</g>
</svg>
