<?xml version="1.0" encoding="utf-8"?>
<!-- Generator: Adobe Illustrator 21.1.0, SVG Export Plug-In . SVG Version: 6.00 Build 0)  -->
<svg version="1.1" id="Checkin" xmlns="http://www.w3.org/2000/svg" xmlns:xlink="http://www.w3.org/1999/xlink" x="0px" y="0px"
	 viewBox="0 0 139 139" style="enable-background:new 0 0 139 139;" xml:space="preserve">
<style type="text/css">
	.st0{fill:#004CD1;}
</style>
<g>
	<circle class="st0" cx="70.1" cy="60.5" r="17.6"/>
	<path class="st0" d="M69.9,2C32.6,2,2.4,32.2,2.4,69.5c0,37.3,30.2,67.5,67.5,67.5c37.3,0,67.5-30.2,67.5-67.5
		C137.4,32.2,107.1,2,69.9,2z M69.9,115.6c-4.3-3.4-33.8-27.2-33.8-52.3c0-18.6,14.9-33.7,33.5-34v0c0.1,0,0.2,0,0.3,0
		c0.1,0,0.2,0,0.3,0v0c18.5,0.3,33.5,15.4,33.5,34C103.6,88.5,74.2,112.3,69.9,115.6z"/>
</g>
</svg>
