<?xml version="1.0" encoding="utf-8"?>
<!-- Generator: Adobe Illustrator 21.1.0, SVG Export Plug-In . SVG Version: 6.00 Build 0)  -->
<svg version="1.1" id="Layer_1" xmlns="http://www.w3.org/2000/svg" xmlns:xlink="http://www.w3.org/1999/xlink" x="0px" y="0px"
	 viewBox="277.5 277.5 45 45" style="enable-background:new 277.5 277.5 45 45;" xml:space="preserve">
<style type="text/css">
	.st0{fill:#004CD1;}
</style>
<g>
	<path class="st0" d="M298.5,298.1c-3.4-0.8-1.5-3.8,1.2-3.7c2.7,0,4,2.9,5.2,2.8c1.2-0.1,2.2-2,0.3-3.6c-1.6-1.4-3.7-2.2-6.9-1.9
		c-2.5,0.2-4.9,1.9-5.2,5.1c-0.3,3.2,3.4,4.8,6.4,5.3c2.1,0.3,4.9,1.3,3.2,3.3c-1.6,1.8-4.5,0.7-5.3,0.2c-0.8-0.5-1.6-2.3-3.1-2.2
		c-1.5,0.1-2.2,2-0.4,3.7c1.6,1.5,3.3,2.4,7.1,2.2c3.7-0.2,7.1-3.5,5.7-6.7C305.5,299.3,301.9,299,298.5,298.1z"/>
	<path class="st0" d="M300,277.5c-12.4,0-22.5,10.1-22.5,22.5c0,12.4,10.1,22.5,22.5,22.5c12.4,0,22.5-10.1,22.5-22.5
		C322.5,287.6,312.4,277.5,300,277.5z M305.8,312.7c-1.4,0-2.6-0.4-3.7-1.1c-0.7,0.1-1.4,0.2-2.1,0.2c-6.5,0-11.7-5.3-11.7-11.8
		c0-0.6,0-1.3,0.1-1.9c-0.7-1.1-1.1-2.4-1.1-3.9c0-3.9,3.1-7.1,7-7.1c1.4,0,2.7,0.4,3.8,1.1c0.6-0.1,1.2-0.2,1.9-0.2
		c6.5,0,11.7,5.3,11.7,11.8c0,0.5,0,1.1-0.1,1.6c0.8,1.1,1.2,2.5,1.2,4C312.7,309.6,309.6,312.7,305.8,312.7z"/>
</g>
</svg>
